<svg width="32" height="32" viewBox="0 0 32 32" fill="none" xmlns="http://www.w3.org/2000/svg">
<g clip-path="url(#clip0_1702_508)">
<rect width="32" height="32" rx="6" fill="#31424F"/>
<path d="M-91.0473 31.4287C-92.623 31.4287 -94.0795 31.142 -95.42 30.5687C-96.7637 29.9953 -97.9173 29.2245 -98.884 28.253C-99.8507 27.2846 -100.614 26.1411 -101.169 24.8288C-101.723 23.5164 -102 22.1308 -102 20.6783V20.6019C-102 19.1494 -101.723 17.7638 -101.169 16.4514C-100.614 15.1391 -99.8475 13.9892 -98.8647 13.0081C-97.8851 12.027 -96.7025 11.2466 -95.3233 10.6733C-93.9441 10.0999 -92.4264 9.81325 -90.7766 9.81325C-88.608 9.81325 -86.8034 10.2337 -85.3566 11.0746C-83.913 11.9155 -82.7368 13.04 -81.8346 14.4415L-86.8292 18.1141C-87.3448 17.4261 -87.899 16.891 -88.4952 16.5088C-89.0881 16.1265 -89.8389 15.9354 -90.7411 15.9354C-91.3341 15.9354 -91.8819 16.0564 -92.3845 16.2985C-92.8872 16.5406 -93.319 16.8719 -93.6799 17.2923C-94.0408 17.7128 -94.3244 18.197 -94.5306 18.7448C-94.7368 19.2927 -94.84 19.8852 -94.84 20.5254V20.6019C-94.84 21.2644 -94.7368 21.8824 -94.5306 22.4589C-94.3244 23.0322 -94.0408 23.5292 -93.6799 23.9528C-93.319 24.3733 -92.8808 24.7045 -92.3652 24.9466C-91.8496 25.1887 -91.2825 25.3097 -90.6606 25.3097C-89.7841 25.3097 -89.043 25.1186 -88.4339 24.7364C-87.8281 24.3541 -87.2288 23.8318 -86.6327 23.166L-81.7154 26.6858C-82.695 28.116 -83.9227 29.2627 -85.3921 30.1291C-86.8614 30.9955 -88.7465 31.4287 -91.044 31.4287H-91.0473Z" fill="white"/>
<path d="M-78.9729 3H-71.5808V30.9319H-78.9729V3Z" fill="white"/>
<path d="M-57.1415 31.4287C-58.7946 31.4287 -60.3026 31.1675 -61.6689 30.6451C-63.0384 30.1227 -64.2178 29.3964 -65.2103 28.4631C-66.2027 27.533 -66.9793 26.4023 -67.5336 25.0772C-68.0878 23.7521 -68.3649 22.2837 -68.3649 20.6783V20.6018C-68.3649 19.0984 -68.1071 17.6873 -67.5916 16.3749C-67.076 15.0626 -66.3477 13.9127 -65.4036 12.9316C-64.4627 11.9505 -63.3445 11.1765 -62.0556 10.6159C-60.7667 10.0553 -59.3456 9.77499 -57.7989 9.77499C-55.9944 9.77499 -54.4251 10.0808 -53.0943 10.6924C-51.7667 11.3039 -50.6678 12.1257 -49.8042 13.161C-48.9407 14.193 -48.2962 15.3939 -47.8676 16.7572C-47.4423 18.1237 -47.2296 19.5698 -47.2296 21.0987V21.825C-47.2296 22.0798 -47.2425 22.3346 -47.2683 22.5895H-61.279C-60.9954 23.7362 -60.4605 24.593 -59.6743 25.1536C-58.888 25.7142 -57.9117 25.9945 -56.7516 25.9945C-55.8751 25.9945 -55.0663 25.8289 -54.3316 25.4976C-53.5969 25.1664 -52.8558 24.6312 -52.105 23.8891L-48.0416 27.2177C-49.047 28.495 -50.294 29.5143 -51.7763 30.2788C-53.2618 31.0432 -55.047 31.4255 -57.1383 31.4255L-57.1415 31.4287ZM-54.1222 18.8786C-54.2511 17.7319 -54.6378 16.8177 -55.2822 16.1424C-55.9267 15.4671 -56.7516 15.1295 -57.7602 15.1295C-58.7688 15.1295 -59.5422 15.4671 -60.1609 16.1424C-60.7795 16.8177 -61.192 17.7287 -61.3982 18.8786H-54.1222Z" fill="white"/>
<path d="M-38.0974 31.3907C-39.1028 31.3907 -40.034 31.2505 -40.8847 30.9702C-41.7354 30.6899 -42.4798 30.2822 -43.1114 29.747C-43.7429 29.2119 -44.2392 28.5494 -44.6001 27.7562C-44.961 26.9663 -45.1414 26.0489 -45.1414 25.001V24.9245C-45.1414 23.8542 -44.9416 22.9082 -44.5421 22.0928C-44.1425 21.2773 -43.5883 20.5989 -42.8761 20.0637C-42.1672 19.5286 -41.3068 19.1209 -40.3015 18.8406C-39.2961 18.5603 -38.1715 18.4201 -36.9341 18.4201C-35.9545 18.4201 -35.0168 18.5029 -34.1275 18.6686C-33.2381 18.8342 -32.497 19.019 -31.9008 19.2228V18.8788C-31.9008 17.8085 -32.2424 16.9804 -32.9255 16.3911C-33.6087 15.805 -34.6624 15.5119 -36.0802 15.5119C-37.1887 15.5119 -38.1973 15.6139 -39.0995 15.8177C-40.0018 16.0216 -40.9202 16.3019 -41.8482 16.6586L-43.3562 11.5303C-42.1704 11.0461 -40.9105 10.6575 -39.5829 10.3645C-38.2553 10.0714 -36.686 9.92492 -34.8783 9.92492C-33.0705 9.92492 -31.4014 10.1415 -30.0963 10.5747C-28.7945 11.0079 -27.7279 11.6322 -26.903 12.4509C-26.1038 13.2153 -25.5303 14.1423 -25.179 15.2253C-24.831 16.3083 -24.657 17.5792 -24.657 19.0317V30.932H-31.9331V28.7883C-32.6549 29.5782 -33.5152 30.2121 -34.5077 30.6835C-35.5002 31.155 -36.6957 31.3907 -38.0877 31.3907H-38.0974ZM-35.4647 26.8389C-34.382 26.8389 -33.5056 26.5331 -32.8321 25.9215C-32.1618 25.3099 -31.8267 24.4817 -31.8267 23.4338V22.4782C-32.1876 22.3253 -32.6194 22.1979 -33.1221 22.096C-33.6248 21.994 -34.1468 21.9431 -34.6914 21.9431C-35.7741 21.9431 -36.6087 22.1788 -37.1887 22.6502C-37.7687 23.1216 -38.0587 23.7396 -38.0587 24.5072V24.5837C-38.0587 25.2972 -37.8138 25.8514 -37.324 26.2496C-36.8342 26.6446 -36.2155 26.8421 -35.4647 26.8421V26.8389Z" fill="white"/>
<path d="M-20.9097 10.2305H-13.5176V13.1387C-13.1857 12.7055 -12.8152 12.285 -12.4091 11.8773C-11.9999 11.4696 -11.5423 11.1128 -11.0332 10.807C-10.5241 10.5012 -9.96338 10.2528 -9.35114 10.0617C-8.73889 9.87055 -8.06542 9.77499 -7.32428 9.77499C-5.06864 9.77499 -3.30925 10.4503 -2.05254 11.804C-0.795825 13.1578 -0.164241 15.018 -0.164241 17.391V30.9349H-7.55629V19.7227C-7.55629 18.576 -7.82375 17.7064 -8.35866 17.1203C-8.89357 16.5342 -9.59281 16.2411 -10.4596 16.2411C-11.3264 16.2411 -12.0837 16.5342 -12.6573 17.1203C-13.2308 17.7064 -13.5176 18.5728 -13.5176 19.7227V30.9349H-20.9097V10.2305Z" fill="white"/>
<path d="M-61.6303 55C-63.0514 55 -64.3596 54.7898 -65.5583 54.3693C-66.7571 53.9489 -67.7914 53.35 -68.655 52.5696C-69.5186 51.7924 -70.1985 50.8432 -70.6883 49.7188C-71.1781 48.5976 -71.423 47.333 -71.423 45.9314C-71.423 44.1986 -71.0943 42.5646 -70.437 41.0325C-69.7796 39.5035 -68.8838 38.1689 -67.7463 37.0349C-66.6121 35.9009 -65.2812 35.0059 -63.7603 34.3561C-62.2393 33.7063 -60.5992 33.3814 -58.843 33.3814C-57.6314 33.3814 -56.5326 33.5279 -55.553 33.8209C-54.5734 34.114 -53.713 34.5153 -52.9783 35.025C-52.2436 35.5346 -51.6249 36.1335 -51.119 36.8247C-50.6164 37.5127 -50.2232 38.2549 -49.9397 39.0448L-55.7077 41.9912C-56.0686 41.1758 -56.5197 40.5387 -57.061 40.0769C-57.6024 39.6182 -58.3532 39.3888 -59.307 39.3888C-60.003 39.3888 -60.6572 39.5609 -61.263 39.9049C-61.8688 40.2489 -62.4037 40.7076 -62.8709 41.2809C-63.3349 41.8543 -63.6958 42.5104 -63.9536 43.2526C-64.2114 43.9916 -64.3403 44.7593 -64.3403 45.5492C-64.3403 46.6195 -64.031 47.4636 -63.4123 48.0752C-62.7936 48.6867 -62.0331 48.9925 -61.1276 48.9925C-60.3543 48.9925 -59.6647 48.8333 -59.0557 48.5147C-58.4499 48.1962 -57.8247 47.7184 -57.177 47.0813L-52.6883 50.9451C-53.7453 52.1683 -54.9794 53.1525 -56.3843 53.8915C-57.7925 54.6305 -59.539 55 -61.6303 55Z" fill="white"/>
<path d="M-38.5614 33.8019L-39.6828 37.9714C-38.6774 36.4935 -37.5399 35.3372 -36.2768 34.509C-35.0136 33.6808 -33.5281 33.3305 -31.8267 33.4579L-33.918 41.109H-34.5367C-36.5507 41.109 -38.207 41.6823 -39.512 42.8322C-40.8138 43.9789 -41.8031 45.7914 -42.4733 48.2663L-44.178 54.5031H-51.5313L-45.918 33.8019H-38.5614Z" fill="white"/>
<path d="M-26.2138 46.1607C-26.1365 47.2055 -25.782 48.0368 -25.1504 48.6484C-24.5188 49.26 -23.5715 49.5658 -22.3051 49.5658C-21.5575 49.5658 -20.8293 49.4384 -20.1171 49.1835C-19.4082 48.9287 -18.6542 48.5083 -17.8518 47.9222L-14.4458 51.9006C-15.5285 52.818 -16.7691 53.5665 -18.1612 54.1399C-19.5532 54.7132 -21.1676 54.9999 -23.0011 54.9999C-24.5478 54.9999 -25.9431 54.7833 -27.1805 54.3501C-28.4179 53.9169 -29.4651 53.2989 -30.3158 52.4931C-31.1665 51.6904 -31.8271 50.7284 -32.2911 49.604C-32.7551 48.4828 -32.9872 47.2182 -32.9872 45.8167C-32.9872 44.2845 -32.6971 42.7747 -32.1171 41.284C-31.5371 39.7933 -30.6993 38.4586 -29.6005 37.2864C-28.5049 36.1142 -27.1805 35.1618 -25.6338 34.4356C-24.0838 33.7093 -22.3438 33.3462 -20.4071 33.3462C-18.8572 33.3462 -17.5231 33.5819 -16.4018 34.0534C-15.2804 34.5248 -14.3556 35.1555 -13.6338 35.9486C-12.912 36.7386 -12.3771 37.6527 -12.029 38.6848C-11.681 39.7168 -11.507 40.7966 -11.507 41.9179C-11.507 42.6314 -11.5779 43.3512 -11.7197 44.0807C-11.8615 44.8069 -12.0613 45.5045 -12.3191 46.1671H-26.2138V46.1607ZM-18.2417 42.4498C-18.1128 42.0676 -18.0484 41.6981 -18.0484 41.3413C-18.0484 40.6278 -18.2804 40.0099 -18.7444 39.4843C-19.2084 38.9619 -19.9302 38.7007 -20.913 38.7007C-21.8959 38.7007 -22.8303 39.0129 -23.7197 39.6372C-24.6091 40.2615 -25.2761 41.2012 -25.7143 42.4498H-18.2417Z" fill="white"/>
<path d="M-7.55647 33.8018H-0.47377L-0.551103 44.2082L5.52624 33.7254H11.5649L11.9903 44.2847L17.6422 33.8018H24.8023L12.6863 54.656H6.4156L5.91291 43.9056L-0.47377 54.656H-6.82178L-7.55647 33.8018Z" fill="white"/>
<path d="M13.7513 24.881C13.4699 25.618 12.9736 26.256 12.3254 26.7143C11.6771 27.1725 10.906 27.4305 10.1094 27.4555C9.31286 27.4805 8.5267 27.2714 7.85033 26.8548C7.17396 26.4381 6.63777 25.8326 6.30957 25.1147C5.98136 24.3968 5.87588 23.5988 6.00646 22.8217C6.13704 22.0445 6.49782 21.3231 7.04318 20.7486C7.58854 20.1742 8.29398 19.7725 9.07029 19.5943C9.8466 19.4162 10.6589 19.4696 11.4045 19.7478C12.4043 20.1209 13.2133 20.8713 13.6534 21.834C14.0935 22.7966 14.1287 23.8927 13.7513 24.881ZM11.4894 24.037C11.3384 24.4323 11.0348 24.7522 10.6453 24.9262C10.2557 25.1002 9.81219 25.1142 9.41226 24.9649C9.2123 24.8903 8.99054 24.8973 8.79577 24.9843C8.601 25.0713 8.44917 25.2312 8.37368 25.4289C7.77885 26.9866 11.9101 27.4467 12.9973 24.5997C13.0728 24.402 13.0658 24.1828 12.9778 23.9903C12.8897 23.7977 12.7279 23.6476 12.528 23.573C12.328 23.4984 12.1063 23.5054 11.9115 23.5924C11.7167 23.6794 11.5649 23.8393 11.4894 24.037Z" fill="white"/>
<path d="M28.0976 24.0168C27.4603 25.1079 26.5263 25.9971 25.4138 26.5719C24.3013 27.1467 23.0602 27.3812 21.8474 27.2459C20.6347 27.1105 19.5048 26.6113 18.6006 25.8115C17.6964 25.0116 17.0585 23.9469 16.7677 22.7522C16.4768 21.5574 16.546 20.2861 16.9664 19.0992C17.3869 17.9122 18.1398 16.8628 19.13 16.0837C20.1201 15.3046 21.3029 14.8308 22.5289 14.7222C23.755 14.6136 24.9691 14.8751 26.0177 15.4736C27.424 16.2762 28.4331 17.6271 28.8232 19.2293C29.2132 20.8314 28.9522 22.5535 28.0976 24.0168ZM24.3396 16.6176C24.2175 16.8267 24.1803 17.0727 24.236 17.3016C24.2917 17.5304 24.4358 17.7234 24.6367 17.8381C25.4403 18.2967 26.017 19.0687 26.2398 19.9842C26.4627 20.8997 26.3136 21.8838 25.8252 22.7199C25.7031 22.9289 25.6659 23.1749 25.7216 23.4038C25.7773 23.6327 25.9215 23.8257 26.1224 23.9403C26.3232 24.055 26.5644 24.0819 26.7928 24.0152C27.0212 23.9484 27.2181 23.7935 27.3401 23.5845C29.8674 19.2575 25.4536 14.7103 24.3396 16.6176Z" fill="white"/>
<path d="M9.27089 15.479C8.16702 14.849 7.25803 13.942 6.65886 12.8726C6.0597 11.8031 5.79727 10.6194 5.90476 9.47098C6.01225 8.32258 6.48484 7.26113 7.26276 6.42084C8.04068 5.58055 9.08899 4.99918 10.2751 4.75023C11.4613 4.50128 12.732 4.59594 13.9265 5.02223C15.1211 5.44853 16.1859 6.18732 16.9862 7.14517C17.7865 8.10303 18.2865 9.23693 18.4228 10.4035C18.5592 11.5701 18.3258 12.7169 17.7523 13.6989C16.9831 15.0158 15.6574 15.9432 14.0669 16.277C12.4763 16.6109 10.7511 16.3238 9.27089 15.479ZM16.5719 12.0795C16.3604 11.9588 16.114 11.9178 15.8868 11.9655C15.6595 12.0132 15.4702 12.1457 15.3603 12.3338C14.9208 13.0863 14.1632 13.6163 13.2543 13.807C12.3454 13.9978 11.3596 13.8337 10.5138 13.351C10.3023 13.2303 10.0559 13.1893 9.82865 13.237C9.60143 13.2847 9.41204 13.4172 9.30216 13.6053C9.19228 13.7934 9.17091 14.0218 9.24274 14.2402C9.31457 14.4585 9.47372 14.649 9.68519 14.7697C14.0625 17.2679 18.5014 13.1807 16.5719 12.0795Z" fill="white"/>
</g>
<defs>
<clipPath id="clip0_1702_508">
<rect width="32" height="32" rx="6" fill="white"/>
</clipPath>
</defs>
</svg>
