<svg width="772" height="165" viewBox="0 0 772 165" fill="none" xmlns="http://www.w3.org/2000/svg">
<path d="M163.846 144.416C137.65 144.416 121.248 127.07 121.248 99.4583C121.248 72.2003 138.594 54.2643 164.672 54.2643C186.502 54.2643 202.196 66.7723 204.91 86.3603H184.732C182.136 77.6283 174.702 72.6723 164.2 72.6723C150.04 72.6723 141.426 82.7023 141.426 99.3403C141.426 115.742 150.158 126.008 164.2 126.008C174.938 126.008 182.844 120.698 185.204 112.084H205.028C201.96 131.554 185.676 144.416 163.846 144.416Z" fill="#31424F"/>
<path d="M234.346 143H216.174V54.0283H234.346V143Z" fill="#31424F"/>
<path d="M276.535 144.534C258.717 144.534 245.973 131.554 245.973 113.382C245.973 94.9743 258.363 82.1123 276.181 82.1123C294.707 82.1123 306.271 94.2663 306.271 113.5V118.102L263.437 118.338C264.499 126.126 268.865 129.784 276.889 129.784C283.733 129.784 288.571 127.306 289.869 123.058H306.507C304.383 136.156 292.701 144.534 276.535 144.534ZM276.299 96.8623C269.101 96.8623 265.089 100.048 263.673 107.128H288.217C288.217 100.874 283.615 96.8623 276.299 96.8623Z" fill="#31424F"/>
<path d="M335.454 144.534C322.946 144.534 315.158 137.218 315.158 125.654C315.158 114.798 322.828 108.072 336.988 107.01L353.508 105.712V104.768C353.508 98.9863 349.968 95.9183 343.478 95.9183C335.808 95.9183 331.678 98.8683 331.678 104.178H316.574C316.574 90.8443 327.548 82.1123 344.422 82.1123C361.532 82.1123 371.208 91.6703 371.208 108.544V143H355.16L353.98 135.212C352.092 140.64 344.304 144.534 335.454 144.534ZM341.826 131.082C348.788 131.082 353.626 127.66 353.626 120.934V117.748L344.422 118.574C336.516 119.282 333.684 121.052 333.684 124.828C333.684 129.076 336.28 131.082 341.826 131.082Z" fill="#31424F"/>
<path d="M403.593 143H385.421V84.0003H402.531L403.711 90.1363C407.369 85.0623 414.095 82.1123 421.765 82.1123C435.807 82.1123 443.949 91.0803 443.949 106.538V143H425.777V110.904C425.777 103.47 421.647 98.6323 415.393 98.6323C408.195 98.6323 403.593 103.352 403.593 110.668V143Z" fill="#31424F"/>
<path d="M498.164 144.416C471.968 144.416 455.566 127.07 455.566 99.4583C455.566 72.2003 472.912 54.2643 498.99 54.2643C520.82 54.2643 536.514 66.7723 539.228 86.3603H519.05C516.454 77.6283 509.02 72.6723 498.518 72.6723C484.358 72.6723 475.744 82.7023 475.744 99.3403C475.744 115.742 484.476 126.008 498.518 126.008C509.256 126.008 517.162 120.698 519.522 112.084H539.346C536.278 131.554 519.994 144.416 498.164 144.416Z" fill="#31424F"/>
<path d="M591.661 84.0003V101.11H585.879C575.495 101.11 569.241 105.712 569.241 117.394V143H551.069V84.1183H568.179L569.123 92.8503C571.601 87.0683 576.793 83.1743 584.699 83.1743C586.823 83.1743 589.183 83.4103 591.661 84.0003Z" fill="#31424F"/>
<path d="M627.677 144.534C609.859 144.534 597.115 131.554 597.115 113.382C597.115 94.9743 609.505 82.1123 627.323 82.1123C645.849 82.1123 657.413 94.2663 657.413 113.5V118.102L614.579 118.338C615.641 126.126 620.007 129.784 628.031 129.784C634.875 129.784 639.713 127.306 641.011 123.058H657.649C655.525 136.156 643.843 144.534 627.677 144.534ZM627.441 96.8623C620.243 96.8623 616.231 100.048 614.815 107.128H639.359C639.359 100.874 634.757 96.8623 627.441 96.8623Z" fill="#31424F"/>
<path d="M679.692 143L660.694 84.0003H679.81L685.238 103.234C686.654 108.308 687.952 114.09 688.896 119.99C689.958 113.736 690.548 111.494 693.144 103.234L699.162 84.0003H717.806L723.352 103.234C723.942 105.24 726.774 116.214 727.364 119.99C728.072 115.742 730.904 105.358 731.494 103.234L737.158 84.0003H756.392L735.742 143H718.868L713.204 124.238C710.254 114.562 708.72 107.6 708.366 105.122C707.894 107.6 706.832 112.202 703.056 124.592L697.392 143H679.692Z" fill="#31424F"/>
<path d="M59.5969 63.0156C65.0075 63.0156 70.2965 64.5424 74.7952 67.4028C79.2939 70.2632 82.8002 74.3288 84.8707 79.0854C86.9413 83.8421 87.483 89.0762 86.4275 94.1259C85.3719 99.1755 82.7665 103.814 78.9407 107.455C75.1148 111.095 70.2404 113.574 64.9339 114.579C59.6273 115.583 54.1269 115.068 49.1282 113.098C44.1295 111.127 39.857 107.791 36.8511 103.51C33.8451 99.2289 32.2407 94.1959 32.2407 89.0473C32.2407 85.6288 32.9483 82.2438 34.3231 79.0854C35.6979 75.9271 37.7129 73.0574 40.2532 70.6401C42.7934 68.2229 45.8092 66.3054 49.1282 64.9972C52.4472 63.689 56.0045 63.0156 59.5969 63.0156ZM37.3887 91.6978C38.0674 96.8472 40.6985 101.584 44.7878 105.017C48.8771 108.451 54.1432 110.346 59.5969 110.346C60.2565 110.346 60.8891 110.097 61.3554 109.653C61.8218 109.209 62.0838 108.607 62.0838 107.98C62.0838 107.352 61.8218 106.75 61.3554 106.306C60.8891 105.862 60.2565 105.613 59.5969 105.613C55.3352 105.645 51.2091 104.189 48.0006 101.519C44.7921 98.8499 42.7241 95.1532 42.1884 91.1299C41.9921 90.6321 41.6253 90.2118 41.1473 89.9366C40.6692 89.6614 40.1077 89.5474 39.5532 89.613C38.9988 89.6787 38.4837 89.92 38.091 90.2982C37.6983 90.6765 37.4509 91.1695 37.3887 91.6978Z" fill="#31424F"/>
<path d="M81.8884 22.3877C85.3315 22.3877 88.6972 23.3593 91.56 25.1795C94.4228 26.9998 96.6541 29.587 97.9717 32.6139C99.2893 35.6409 99.6341 38.9717 98.9624 42.1851C98.2907 45.3986 96.6327 48.3503 94.198 50.667C91.7634 52.9838 88.6615 54.5615 85.2846 55.2007C81.9077 55.8399 78.4074 55.5118 75.2264 54.258C72.0455 53.0042 69.3266 50.8809 67.4138 48.1567C65.5009 45.4325 64.4799 42.2297 64.4799 38.9533C64.4799 34.5599 66.314 30.3463 69.5787 27.2397C72.8434 24.133 77.2714 22.3877 81.8884 22.3877ZM69.4538 41.3199C70.1133 41.3199 70.7459 41.0705 71.2123 40.6267C71.6787 40.1829 71.9407 39.581 71.9407 38.9533C71.9407 36.4428 72.9887 34.035 74.8543 32.2598C76.7199 30.4846 79.2501 29.4873 81.8884 29.4873C82.548 29.4873 83.1805 29.2379 83.6469 28.7941C84.1133 28.3503 84.3753 27.7484 84.3753 27.1207C84.3753 26.4931 84.1133 25.8912 83.6469 25.4474C83.1805 25.0035 82.548 24.7542 81.8884 24.7542C68.2352 24.7542 63.4354 41.3199 69.4538 41.3199Z" fill="#31424F"/>
<path d="M39.4462 10.7793C41.9056 10.7793 44.3097 11.4733 46.3545 12.7734C48.3994 14.0736 49.9932 15.9216 50.9343 18.0838C51.8755 20.2459 52.1217 22.625 51.6419 24.9203C51.1621 27.2156 49.9778 29.324 48.2388 30.9788C46.4998 32.6336 44.2842 33.7606 41.8721 34.2171C39.46 34.6737 36.9598 34.4394 34.6877 33.5438C32.4156 32.6482 30.4735 31.1316 29.1072 29.1857C27.7409 27.2399 27.0116 24.9522 27.0116 22.6119C27.0116 19.4737 28.3217 16.464 30.6536 14.245C32.9856 12.0259 36.1484 10.7793 39.4462 10.7793ZM39.4462 17.8789C40.7654 17.8789 42.0305 18.3775 42.9633 19.2651C43.896 20.1527 44.4201 21.3566 44.4201 22.6119C44.4201 23.2395 44.6821 23.8415 45.1485 24.2853C45.6149 24.7291 46.2474 24.9784 46.907 24.9784C52.1047 24.9784 48.9463 13.1458 39.4462 13.1458C38.7866 13.1458 38.1541 13.3951 37.6877 13.839C37.2213 14.2828 36.9593 14.8847 36.9593 15.5123C36.9593 16.14 37.2213 16.7419 37.6877 17.1857C38.1541 17.6295 38.7866 17.8789 39.4462 17.8789Z" fill="#31424F"/>
<path d="M19.6603 62.2899C15.5398 62.2899 12.1995 59.1114 12.1995 55.1904C12.1995 51.2694 15.5398 48.0908 19.6603 48.0908C23.7808 48.0908 27.1211 51.2694 27.1211 55.1904C27.1211 59.1114 23.7808 62.2899 19.6603 62.2899Z" fill="#31424F"/>
</svg>
