<svg width="407" height="164" viewBox="0 0 407 164" fill="none" xmlns="http://www.w3.org/2000/svg">
<path d="M33.99 89.2496C29.1 89.2496 24.58 88.3497 20.42 86.5497C16.25 84.7497 12.67 82.3296 9.67 79.2796C6.67 76.2396 4.3 72.6496 2.58 68.5296C0.86 64.4096 0 60.0596 0 55.4996V55.2596C0 50.6996 0.86 46.3496 2.58 42.2296C4.3 38.1096 6.68 34.4996 9.73 31.4196C12.77 28.3396 16.44 25.8896 20.72 24.0896C25 22.2896 29.71 21.3896 34.83 21.3896C41.56 21.3896 47.16 22.7096 51.65 25.3496C56.13 27.9896 59.78 31.5196 62.58 35.9196L47.08 47.4496C45.48 45.2896 43.76 43.6096 41.91 42.4096C40.07 41.2096 37.74 40.6096 34.94 40.6096C33.1 40.6096 31.4 40.9896 29.84 41.7496C28.28 42.5096 26.94 43.5496 25.82 44.8696C24.7 46.1896 23.82 47.7096 23.18 49.4296C22.54 51.1496 22.22 53.0096 22.22 55.0196V55.2596C22.22 57.3396 22.54 59.2796 23.18 61.0896C23.82 62.8896 24.7 64.4496 25.82 65.7796C26.94 67.0996 28.3 68.1397 29.9 68.8997C31.5 69.6597 33.26 70.0396 35.19 70.0396C37.91 70.0396 40.21 69.4396 42.1 68.2396C43.98 67.0396 45.84 65.3997 47.69 63.3097L62.95 74.3596C59.91 78.8496 56.1 82.4496 51.54 85.1696C46.98 87.8896 41.13 89.2496 34 89.2496H33.99Z" fill="#31424F"/>
<path d="M71.4609 0H94.4009V87.69H71.4609V0Z" fill="#31424F"/>
<path d="M139.211 89.2495C134.081 89.2495 129.401 88.4295 125.161 86.7895C120.911 85.1495 117.251 82.8695 114.171 79.9395C111.091 77.0195 108.681 73.4695 106.961 69.3095C105.241 65.1495 104.381 60.5395 104.381 55.4995V55.2595C104.381 50.5395 105.181 46.1095 106.781 41.9895C108.381 37.8695 110.641 34.2595 113.571 31.1795C116.491 28.0995 119.961 25.6695 123.961 23.9095C127.961 22.1495 132.371 21.2695 137.171 21.2695C142.771 21.2695 147.641 22.2295 151.771 24.1495C155.891 26.0695 159.301 28.6495 161.981 31.8995C164.661 35.1395 166.661 38.9095 167.991 43.1895C169.311 47.4795 169.971 52.0195 169.971 56.8195V59.0995C169.971 59.8995 169.931 60.6995 169.851 61.4995H126.371C127.251 65.0995 128.911 67.7895 131.351 69.5495C133.791 71.3095 136.821 72.1895 140.421 72.1895C143.141 72.1895 145.651 71.6695 147.931 70.6295C150.211 69.5895 152.511 67.9095 154.841 65.5795L167.451 76.0295C164.331 80.0395 160.461 83.2395 155.861 85.6395C151.251 88.0395 145.711 89.2395 139.221 89.2395L139.211 89.2495ZM148.581 49.8495C148.181 46.2495 146.981 43.3795 144.981 41.2595C142.981 39.1395 140.421 38.0795 137.291 38.0795C134.161 38.0795 131.761 39.1395 129.841 41.2595C127.921 43.3795 126.641 46.2395 126.001 49.8495H148.581Z" fill="#31424F"/>
<path d="M198.311 89.1302C195.191 89.1302 192.301 88.6902 189.661 87.8102C187.021 86.9302 184.711 85.6502 182.751 83.9702C180.791 82.2902 179.251 80.2102 178.131 77.7202C177.011 75.2402 176.451 72.3602 176.451 69.0702V68.8302C176.451 65.4702 177.071 62.5002 178.311 59.9402C179.551 57.3802 181.271 55.2502 183.481 53.5702C185.681 51.8902 188.351 50.6102 191.471 49.7302C194.591 48.8502 198.081 48.4102 201.921 48.4102C204.961 48.4102 207.871 48.6702 210.631 49.1902C213.391 49.7102 215.691 50.2902 217.541 50.9302V49.8502C217.541 46.4902 216.481 43.8902 214.361 42.0402C212.241 40.2002 208.971 39.2802 204.571 39.2802C201.131 39.2802 198.001 39.6002 195.201 40.2402C192.401 40.8802 189.551 41.7602 186.671 42.8802L181.991 26.7802C185.671 25.2602 189.581 24.0402 193.701 23.1202C197.821 22.2002 202.691 21.7402 208.301 21.7402C213.911 21.7402 219.091 22.4202 223.141 23.7802C227.181 25.1402 230.491 27.1002 233.051 29.6702C235.531 32.0702 237.311 34.9802 238.401 38.3802C239.481 41.7802 240.021 45.7702 240.021 50.3302V87.6902H217.441V80.9602C215.201 83.4402 212.531 85.4302 209.451 86.9102C206.371 88.3902 202.661 89.1302 198.341 89.1302H198.311ZM206.481 74.8402C209.841 74.8402 212.561 73.8802 214.651 71.9602C216.731 70.0402 217.771 67.4402 217.771 64.1502V61.1502C216.651 60.6702 215.311 60.2702 213.751 59.9502C212.191 59.6302 210.571 59.4702 208.881 59.4702C205.521 59.4702 202.931 60.2102 201.131 61.6902C199.331 63.1702 198.431 65.1102 198.431 67.5202V67.7602C198.431 70.0002 199.191 71.7402 200.711 72.9902C202.231 74.2302 204.151 74.8502 206.481 74.8502V74.8402Z" fill="#31424F"/>
<path d="M251.65 22.6995H274.59V31.8295C275.62 30.4695 276.77 29.1495 278.03 27.8695C279.3 26.5895 280.72 25.4695 282.3 24.5095C283.88 23.5495 285.62 22.7695 287.52 22.1695C289.42 21.5695 291.51 21.2695 293.81 21.2695C300.81 21.2695 306.27 23.3895 310.17 27.6395C314.07 31.8895 316.03 37.7295 316.03 45.1795V87.6995H293.09V52.4995C293.09 48.8995 292.26 46.1695 290.6 44.3295C288.94 42.4895 286.77 41.5695 284.08 41.5695C281.39 41.5695 279.04 42.4895 277.26 44.3295C275.48 46.1695 274.59 48.8895 274.59 52.4995V87.6995H251.65V22.6995Z" fill="#31424F"/>
<path d="M125.281 163.25C120.871 163.25 116.811 162.59 113.091 161.27C109.371 159.95 106.161 158.07 103.481 155.62C100.801 153.18 98.6906 150.2 97.1706 146.67C95.6506 143.15 94.8906 139.18 94.8906 134.78C94.8906 129.34 95.9106 124.21 97.9506 119.4C99.9906 114.6 102.771 110.41 106.301 106.85C109.821 103.29 113.951 100.48 118.671 98.4399C123.391 96.3999 128.481 95.3799 133.931 95.3799C137.691 95.3799 141.101 95.8399 144.141 96.7599C147.181 97.6799 149.851 98.9399 152.131 100.54C154.411 102.14 156.331 104.02 157.901 106.19C159.461 108.35 160.681 110.68 161.561 113.16L143.661 122.41C142.541 119.85 141.141 117.85 139.461 116.4C137.781 114.96 135.451 114.24 132.491 114.24C130.331 114.24 128.301 114.78 126.421 115.86C124.541 116.94 122.881 118.38 121.431 120.18C119.991 121.98 118.871 124.04 118.071 126.37C117.271 128.69 116.871 131.1 116.871 133.58C116.871 136.94 117.831 139.59 119.751 141.51C121.671 143.43 124.031 144.39 126.841 144.39C129.241 144.39 131.381 143.89 133.271 142.89C135.151 141.89 137.091 140.39 139.101 138.39L153.031 150.52C149.751 154.36 145.921 157.45 141.561 159.77C137.191 162.09 131.771 163.25 125.281 163.25Z" fill="#31424F"/>
<path d="M196.871 96.7L193.391 109.79C196.511 105.15 200.041 101.52 203.961 98.92C207.881 96.32 212.491 95.22 217.771 95.62L211.281 119.64H209.361C203.111 119.64 197.971 121.44 193.921 125.05C189.881 128.65 186.811 134.34 184.731 142.11L179.441 161.69H156.621L174.041 96.7H196.871Z" fill="#31424F"/>
<path d="M235.19 135.5C235.43 138.78 236.53 141.39 238.49 143.31C240.45 145.23 243.39 146.19 247.32 146.19C249.64 146.19 251.9 145.79 254.11 144.99C256.31 144.19 258.65 142.87 261.14 141.03L271.71 153.52C268.35 156.4 264.5 158.75 260.18 160.55C255.86 162.35 250.85 163.25 245.16 163.25C240.36 163.25 236.03 162.57 232.19 161.21C228.35 159.85 225.1 157.91 222.46 155.38C219.82 152.86 217.77 149.84 216.33 146.31C214.89 142.79 214.17 138.82 214.17 134.42C214.17 129.61 215.07 124.87 216.87 120.19C218.67 115.51 221.27 111.32 224.68 107.64C228.08 103.96 232.19 100.97 236.99 98.6895C241.8 96.4095 247.2 95.2695 253.21 95.2695C258.02 95.2695 262.16 96.0095 265.64 97.4895C269.12 98.9695 271.99 100.95 274.23 103.44C276.47 105.92 278.13 108.79 279.21 112.03C280.29 115.27 280.83 118.66 280.83 122.18C280.83 124.42 280.61 126.68 280.17 128.97C279.73 131.25 279.11 133.44 278.31 135.52H235.19V135.5ZM259.93 123.85C260.33 122.65 260.53 121.49 260.53 120.37C260.53 118.13 259.81 116.19 258.37 114.54C256.93 112.9 254.69 112.08 251.64 112.08C248.59 112.08 245.69 113.06 242.93 115.02C240.17 116.98 238.1 119.93 236.74 123.85H259.93Z" fill="#31424F"/>
<path d="M293.09 96.7H315.07L314.83 129.37L333.69 96.46H352.43L353.75 129.61L371.29 96.7H393.51L355.91 162.17H336.45L334.89 128.42L315.07 162.17H295.37L293.09 96.7Z" fill="#31424F"/>
<path d="M359.215 68.6937C358.342 71.0075 356.802 73.0104 354.79 74.4491C352.778 75.8877 350.385 76.6975 347.913 76.776C345.441 76.8545 343.001 76.1983 340.902 74.8902C338.803 73.5821 337.139 71.681 336.121 69.4273C335.102 67.1735 334.775 64.6684 335.18 62.2286C335.585 59.7888 336.705 57.5239 338.397 55.7205C340.09 53.917 342.279 52.6559 344.688 52.0966C347.097 51.5373 349.618 51.705 351.932 52.5785C355.035 53.7497 357.545 56.1055 358.911 59.1277C360.277 62.1499 360.386 65.5909 359.215 68.6937ZM352.196 66.044C351.727 67.2851 350.785 68.2893 349.576 68.8356C348.367 69.3819 346.991 69.4256 345.749 68.9571C345.129 68.7229 344.441 68.7447 343.836 69.0179C343.232 69.2911 342.761 69.7931 342.526 70.4137C340.68 75.3039 353.501 76.7485 356.875 67.8104C357.109 67.1899 357.088 66.5017 356.814 65.8973C356.541 65.2928 356.039 64.8216 355.419 64.5874C354.798 64.3531 354.11 64.375 353.505 64.6482C352.901 64.9213 352.43 65.4234 352.196 66.044Z" fill="#31424F"/>
<path d="M403.736 65.9804C401.759 69.4061 398.86 72.1977 395.408 74.0021C391.955 75.8066 388.103 76.5429 384.34 76.118C380.576 75.693 377.07 74.1259 374.264 71.6148C371.458 69.1036 369.478 65.7613 368.576 62.0104C367.673 58.2594 367.888 54.2684 369.193 50.542C370.498 46.8156 372.834 43.5212 375.907 41.0753C378.979 38.6294 382.65 37.142 386.455 36.801C390.26 36.4601 394.027 37.281 397.282 39.1599C401.646 41.6795 404.778 45.9207 405.988 50.9505C407.198 55.9803 406.388 61.3867 403.736 65.9804ZM392.074 42.7515C391.695 43.4077 391.579 44.1801 391.752 44.8986C391.925 45.6172 392.373 46.2231 392.996 46.583C395.49 48.0227 397.279 50.4463 397.971 53.3205C398.663 56.1946 398.2 59.284 396.684 61.909C396.306 62.5652 396.19 63.3376 396.363 64.0561C396.536 64.7747 396.983 65.3806 397.606 65.7405C398.23 66.1004 398.978 66.1849 399.687 65.9754C400.396 65.7659 401.007 65.2795 401.386 64.6233C409.229 51.0391 395.531 36.7636 392.074 42.7515Z" fill="#31424F"/>
<path d="M345.311 39.1769C341.885 37.1991 339.064 34.3515 337.205 30.9941C335.345 27.6367 334.531 23.9204 334.865 20.3151C335.198 16.7098 336.665 13.3775 339.079 10.7395C341.493 8.10144 344.746 6.27626 348.427 5.4947C352.108 4.71314 356.052 5.01031 359.759 6.34864C363.466 7.68696 366.77 10.0063 369.254 13.0134C371.738 16.0206 373.289 19.5804 373.712 23.2427C374.136 26.905 373.411 30.5054 371.631 33.5885C369.244 37.7228 365.13 40.6342 360.194 41.6822C355.258 42.7303 349.904 41.8291 345.311 39.1769ZM367.968 28.5044C367.312 28.1255 366.547 27.9968 365.842 28.1465C365.137 28.2962 364.549 28.7121 364.208 29.3027C362.844 31.6652 360.493 33.3289 357.673 33.9278C354.852 34.5266 351.793 34.0117 349.168 32.4962C348.512 32.1173 347.747 31.9885 347.042 32.1382C346.337 32.288 345.749 32.7039 345.408 33.2945C345.067 33.8851 345 34.6021 345.223 35.2876C345.446 35.9731 345.94 36.5711 346.596 36.95C360.181 44.7928 373.956 31.9615 367.968 28.5044Z" fill="#31424F"/>
</svg>
